<?xml version="1.0" encoding="UTF-8"?>
<svg xmlns="http://www.w3.org/2000/svg" viewBox="0 0 683.72 542.01">
  <defs>
    <style>
      .cls-1 {
        fill: #fff;
      }

      .cls-2 {
        fill: #414243;
      }

      .cls-3 {
        fill: #6c6d6d;
      }

      .cls-4 {
        fill: #efedec;
      }
    </style>
  </defs>
  <rect class="cls-1" width="683.72" height="542.01"/>
  <g id="_0" data-name="0">
    <polygon class="cls-2" points="554.78 99.02 554.77 304.81 485.93 304.81 485.93 182.17 395.66 313.32 485.93 313.32 453.55 361.89 304.78 361.89 304.78 328.54 470.27 99.02 554.78 99.02"/>
    <polygon class="cls-3" points="639.36 313.32 606.98 361.89 554.78 361.89 554.78 474.17 503.71 474.17 503.71 361.89 472.55 361.89 504.93 313.32 639.36 313.32"/>
    <g id="LINE">
      <path class="cls-4" d="M393.33,386.16l46.14.22c-37.51,42.67-88.07,71.58-143.72,82.18-89.36,18.53-180.58-21.95-227.2-100.84-38.21-64.03-30.58-145.6,18.81-201.36,33.03-37.88,79.34-61.47,129.25-65.83,54.95-7.69,110.91-3.19,163.94,13.2l-37.35,52.04c-31.05-6.51-62.94-8.01-94.46-4.41-43.92,2.38-84.09,25.62-108.22,62.59-14,27.78-16.89,59.9-8.07,89.75,13.18,47.08,49.79,83.83,96.62,97.01,55.93,11.27,114.01,2.59,164.26-24.56Z"/>
    </g>
  </g>
</svg>