<?xml version="1.0" encoding="UTF-8"?>
<svg xmlns="http://www.w3.org/2000/svg" viewBox="0 0 683.72 542.01">
  <defs>
    <style>
      .cls-1 {
        fill: #414243;
      }

      .cls-2 {
        fill: #6c6d6d;
      }

      .cls-3 {
        fill: #efedec;
      }
    </style>
  </defs>
  <rect width="683.72" height="542.01"/>
  <g id="_0" data-name="0">
    <polygon class="cls-1" points="561.67 80.05 561.66 285.83 492.82 285.83 492.82 163.2 402.55 294.35 492.82 294.35 460.44 342.92 311.67 342.92 311.67 309.57 477.16 80.05 561.67 80.05"/>
    <polygon class="cls-2" points="646.25 294.35 613.87 342.92 561.67 342.92 561.67 455.2 510.6 455.2 510.6 342.92 479.44 342.92 511.82 294.35 646.25 294.35"/>
    <g id="LINE">
      <path class="cls-3" d="M400.22,367.19l46.14.23c-37.51,42.67-88.07,71.58-143.72,82.18-89.36,18.53-180.59-21.95-227.2-100.84-38.21-64.03-30.59-145.6,18.81-201.36,33.03-37.88,79.34-61.48,129.25-65.84,54.95-7.68,110.91-3.18,163.94,13.21l-37.35,52.04c-31.06-6.52-62.94-8.01-94.47-4.43-43.91,2.39-84.08,25.62-108.21,62.6-14,27.78-16.89,59.89-8.08,89.75,13.19,47.07,49.8,83.83,96.63,97.01,55.93,11.27,114.01,2.58,164.26-24.57Z"/>
    </g>
  </g>
</svg>