<?xml version="1.0" encoding="UTF-8"?>
<svg id="_0" data-name="0" xmlns="http://www.w3.org/2000/svg" viewBox="0 0 683.72 542.01">
  <defs>
    <style>
      .cls-1 {
        fill: #414243;
      }

      .cls-2 {
        fill: #6c6d6d;
      }

      .cls-3 {
        fill: #efedec;
      }
    </style>
  </defs>
  <polygon class="cls-1" points="561.66 80.05 561.65 285.83 492.81 285.83 492.81 163.2 402.54 294.35 492.81 294.35 460.43 342.92 311.66 342.92 311.66 309.57 477.15 80.05 561.66 80.05"/>
  <polygon class="cls-2" points="646.24 294.35 613.86 342.92 561.66 342.92 561.66 455.2 510.59 455.2 510.59 342.92 479.43 342.92 511.81 294.35 646.24 294.35"/>
  <g id="LINE">
    <path class="cls-3" d="M400.21,367.19l46.14.23c-37.51,42.67-88.07,71.58-143.72,82.18-89.36,18.53-180.58-21.95-227.2-100.84-38.2-64.03-30.58-145.6,18.81-201.36,33.03-37.88,79.34-61.48,129.25-65.84,54.95-7.68,110.91-3.18,163.94,13.21l-37.35,52.04c-31.05-6.52-62.94-8.01-94.46-4.43-43.92,2.39-84.09,25.62-108.22,62.6-14,27.78-16.89,59.89-8.07,89.75,13.18,47.07,49.79,83.83,96.62,97.01,55.93,11.27,114.02,2.58,164.26-24.57Z"/>
  </g>
</svg>