<?xml version="1.0" encoding="UTF-8"?>
<svg id="_0" data-name="0" xmlns="http://www.w3.org/2000/svg" viewBox="0 0 683.72 542.01">
  <defs>
    <style>
      .cls-1 {
        fill: #22632f;
      }

      .cls-2 {
        fill: #f3f2f3;
      }

      .cls-3 {
        fill: #a30000;
      }
    </style>
  </defs>
  <polygon class="cls-3" points="521.12 116.02 521.1 287.02 463.91 287.02 463.91 185.12 388.9 294.09 463.91 294.09 437 334.46 313.39 334.46 313.39 306.74 450.9 116.02 521.12 116.02"/>
  <path class="cls-2" d="M386.97,354.62l38.34.19c-31.17,35.46-73.18,59.48-119.42,68.29-74.26,15.4-150.06-18.24-188.79-83.79-31.75-53.21-25.42-120.98,15.63-167.31,27.45-31.48,65.92-51.08,107.4-54.71,45.66-6.38,92.16-2.64,136.22,10.98l-31.03,43.24c-25.81-5.41-52.3-6.65-78.5-3.68-36.49,1.99-69.86,21.29-89.91,52.02-11.63,23.08-14.03,49.76-6.71,74.57,10.95,39.11,41.38,69.65,80.29,80.61,46.47,9.37,94.73,2.15,136.49-20.41Z"/>
  <g>
    <path class="cls-1" d="M471.87,326.46c-.84,1.5-2.33,2.78-4.46,3.83-2.13,1.05-4.33,1.58-6.62,1.58s-3.94-.53-4.92-1.58c-.97-1.05-1.06-2.33-.25-3.83l3.23-5.98h5.69l-4.55,8.31c-.77,1.42-.34,2.12,1.31,2.12s2.83-.71,3.61-2.12l3.56-6.45c.97-1.76,1.26-3.3.85-4.63l-2.66-8.26c-.47-1.43-.23-3.02.71-4.76l2.73-5.05c.81-1.5,2.3-2.78,4.48-3.83,2.18-1.05,4.47-1.58,6.88-1.58s4.09.53,5.11,1.58c1.02,1.05,1.1,2.33.27,3.83l-3.34,5.98h-5.79l4.59-8.31c.78-1.42.33-2.12-1.36-2.12s-2.96.71-3.73,2.12l-3.4,6.21c-.95,1.74-1.22,3.28-.8,4.61l2.62,8.26c.43,1.43.15,3.03-.83,4.79l-2.95,5.28Z"/>
    <path class="cls-1" d="M482.84,331.62h-1.75c-2.28,0-3.88-.53-4.78-1.58-.91-1.05-.94-2.33-.09-3.83l11.95-21.21h-1.84l.54-.96h1.84l4.33-7.69,6.73-1.86-5.44,9.55h4.07l-.55.96h-4.06l-13.41,23.54c-.81,1.42-.39,2.12,1.26,2.12h1.75l-.55.96Z"/>
    <path class="cls-1" d="M502.93,331.62h-7.23l.44-.75c-1.42.67-2.97,1.01-4.64,1.01-4,0-5.06-1.62-3.18-4.87l12.72-22.01h-1.8l.55-.96h7.46l-14.46,24.75c-.79,1.35-.49,2.02.88,2.02.87,0,1.88-.3,3.04-.91l14.68-24.91h-1.8l.56-.96h7.46l-15.85,26.62h1.75l-.57.96Z"/>
    <path class="cls-1" d="M522.6,331.62h-7.23l.46-.75c-1.44.67-3.01,1.01-4.7,1.01-3.97,0-4.99-1.62-3.04-4.87l11.02-18.36c1.95-3.25,4.97-4.87,9.07-4.87,1.74,0,2.94.34,3.59,1.01l5.72-9.35h-1.82l.58-.96h7.54l-22.35,36.17h1.75l-.59.96ZM516.41,329.91l14.77-24.16c-.46-.6-1.14-.91-2.06-.91-1.39,0-2.49.67-3.31,2.02l-13.3,21.93c-.82,1.35-.55,2.02.8,2.02.89,0,1.92-.3,3.09-.91Z"/>
    <path class="cls-1" d="M533.05,331.62h-8.98l.6-.96h1.75l16-25.66h-1.8l.6-.96h7.46l-16.76,26.62h1.75l-.61.96ZM550.68,300.85h-5.68l3.97-6.37h5.72l-4.01,6.37Z"/>
    <path class="cls-1" d="M554.79,326.46c-.99,1.52-2.58,2.8-4.76,3.85-2.18,1.04-4.4,1.57-6.69,1.57s-3.85-.52-4.69-1.57c-.85-1.04-.79-2.33.17-3.85l10.96-17.27c.96-1.52,2.55-2.8,4.77-3.85,2.22-1.04,4.51-1.57,6.87-1.57s3.97.52,4.83,1.57c.86,1.04.79,2.33-.2,3.85l-11.27,17.27ZM547.77,328.79l14.18-21.93c.91-1.42.54-2.12-1.14-2.12s-3,.71-3.9,2.12l-14.05,21.93c-.91,1.42-.54,2.12,1.11,2.12s2.89-.71,3.81-2.12Z"/>
    <path class="cls-1" d="M573.41,326.46c-1.04,1.54-2.57,2.81-4.61,3.83-2.15,1.05-4.35,1.58-6.61,1.58s-3.77-.52-4.52-1.57c-.76-1.04-.64-2.33.36-3.85l2.16-3.29h5.54l-3.72,5.62c-.94,1.42-.66,2.12.82,2.12s2.6-.71,3.54-2.12l2.71-4.07c1.14-1.71,1.38-3.04.72-3.99l-3-4.3c-.76-1.07-.46-2.64.9-4.71l1.66-2.54c1.01-1.54,2.57-2.82,4.68-3.86,2.12-1.04,4.35-1.55,6.68-1.55s3.87.52,4.62,1.55c.74,1.04.59,2.32-.44,3.86l-2.21,3.29h-5.57l3.75-5.62c.94-1.42.69-2.12-.77-2.12s-2.62.71-3.56,2.12l-2.42,3.65c-1.13,1.71-1.37,3.03-.7,3.96l2.99,4.3c.73,1.09.39,2.67-1,4.74l-1.99,2.95Z"/>
  </g>
  <rect class="cls-1" x="478.68" y="334.45" width="42.44" height="93.3"/>
</svg>