<?xml version="1.0" encoding="UTF-8"?>
<svg xmlns="http://www.w3.org/2000/svg" viewBox="0 0 683.72 542.01">
  <defs>
    <style>
      .cls-1 {
        fill: #22632f;
      }

      .cls-2 {
        fill: #f3f2f3;
      }

      .cls-3 {
        fill: #a30000;
      }
    </style>
  </defs>
  <rect width="683.72" height="542.01"/>
  <g id="_0" data-name="0">
    <polygon class="cls-3" points="559.74 87 559.73 292.78 490.89 292.78 490.89 170.15 400.62 301.29 490.89 301.29 458.51 349.87 309.74 349.87 309.74 316.52 475.23 87 559.74 87"/>
    <polygon class="cls-1" points="644.32 301.29 611.94 349.87 559.74 349.87 559.74 462.15 508.67 462.15 508.67 349.87 477.51 349.87 509.89 301.29 644.32 301.29"/>
    <g id="LINE">
      <path class="cls-2" d="M398.29,374.15l46.14.22c-37.51,42.67-88.07,71.58-143.72,82.18-89.36,18.53-180.58-21.95-227.2-100.84-38.21-64.03-30.58-145.6,18.81-201.36,33.03-37.88,79.34-61.47,129.25-65.83,54.95-7.69,110.91-3.19,163.94,13.2l-37.35,52.04c-31.05-6.51-62.94-8.01-94.46-4.41-43.92,2.38-84.09,25.62-108.22,62.59-14,27.78-16.89,59.9-8.07,89.75,13.18,47.07,49.79,83.83,96.62,97.01,55.93,11.27,114.01,2.59,164.26-24.56Z"/>
    </g>
  </g>
</svg>