<?xml version="1.0" encoding="UTF-8"?>
<svg id="_0" data-name="0" xmlns="http://www.w3.org/2000/svg" viewBox="0 0 683.72 542.01">
  <defs>
    <style>
      .cls-1 {
        fill: #22632f;
      }

      .cls-2 {
        fill: #f3f2f3;
      }

      .cls-3 {
        fill: #a30000;
      }
    </style>
  </defs>
  <polygon class="cls-3" points="554.78 94.43 554.76 300.21 485.93 300.21 485.93 177.58 395.65 308.72 485.93 308.72 453.55 357.3 304.78 357.3 304.78 323.95 470.27 94.43 554.78 94.43"/>
  <polygon class="cls-1" points="639.36 308.72 606.98 357.3 554.78 357.3 554.78 469.58 503.71 469.58 503.71 357.3 472.55 357.3 504.93 308.72 639.36 308.72"/>
  <g id="LINE">
    <path class="cls-2" d="M393.33,381.58l46.14.22c-37.51,42.67-88.07,71.58-143.72,82.18-89.37,18.53-180.59-21.95-227.2-100.84-38.21-64.03-30.59-145.6,18.81-201.36,33.03-37.88,79.33-61.47,129.25-65.83,54.95-7.69,110.91-3.19,163.94,13.2l-37.35,52.04c-31.06-6.51-62.95-8.01-94.47-4.41-43.91,2.38-84.08,25.62-108.21,62.59-14,27.78-16.89,59.9-8.08,89.75,13.18,47.07,49.8,83.83,96.63,97.01,55.92,11.27,114.01,2.59,164.26-24.56Z"/>
  </g>
</svg>