<?xml version="1.0" encoding="UTF-8"?>
<svg xmlns="http://www.w3.org/2000/svg" viewBox="0 0 683.72 542.01">
  <defs>
    <style>
      .cls-1 {
        fill: #fff;
      }

      .cls-2 {
        fill: #22632f;
      }

      .cls-3 {
        fill: #f3f2f3;
      }

      .cls-4 {
        fill: #a30000;
      }
    </style>
  </defs>
  <rect class="cls-1" width="683.72" height="542.01"/>
  <g id="_0" data-name="0">
    <polygon class="cls-4" points="574.8 95.58 574.78 301.37 505.95 301.37 505.95 178.73 415.67 309.88 505.95 309.88 473.56 358.46 324.8 358.46 324.8 325.1 490.29 95.58 574.8 95.58"/>
    <polygon class="cls-2" points="659.38 309.88 627 358.46 574.8 358.46 574.8 470.74 523.72 470.74 523.72 358.46 492.57 358.46 524.95 309.88 659.38 309.88"/>
    <g id="LINE">
      <path class="cls-3" d="M413.35,382.73l46.14.22c-37.52,42.67-88.08,71.58-143.72,82.19-89.37,18.52-180.59-21.95-227.2-100.84-38.21-64.03-30.59-145.61,18.81-201.37,33.03-37.88,79.33-61.47,129.25-65.83,54.95-7.69,110.91-3.18,163.94,13.2l-37.35,52.05c-31.06-6.52-62.95-8.02-94.47-4.43-43.91,2.38-84.08,25.62-108.21,62.6-14,27.78-16.89,59.89-8.08,89.74,13.18,47.08,49.8,83.83,96.62,97.01,55.93,11.28,114.02,2.59,164.27-24.56Z"/>
    </g>
  </g>
</svg>